#!Matlab matrix to amc conversion
:FULLY-SPECIFIED
:DEGREES
1
root 9.287220 16.950000 -34.276200 0.000000 0.000000 0.000000
lowerback 0.000000 0.000000 0.000000
upperback 0.000000 0.000000 0.000000
thorax 0.000000 0.000000 0.000000
lowerneck -16.000000 0.000000 0.000000
upperneck 21.000000 0.000000 0.000000
head 11.000000 0.000000 0.000000
rclavicle 0.000000 0.000000
rhumerus 0.000000 0.000000 0.000000
rradius 0.000000
rwrist 0.000000
rhand 0.000000 0.000000
rfingers 0.000000
rthumb 0.000000 0.000000
lclavicle 0.000000 0.000000
lhumerus 0.000000 0.000000 0.000000
lradius 0.000000
lwrist 0.000000
lhand 0.000000 0.000000
lfingers 0.000000
lthumb 0.000000 0.000000
rfemur 0.000000 0.000000 21.000000
rtibia 0.000000
rfoot 0.000000 0.000000
rtoes 0.000000
lfemur 0.000000 0.000000 -21.000000
ltibia 0.000000
lfoot 0.000000 0.000000
ltoes 0.000000
2
root 9.287220 16.950000 -34.276200 1.882954 1.634016 -0.166856
lowerback 6.644870 1.588167 5.541212
upperback 2.413581 2.541440 1.505187
thorax -1.016273 1.272289 -1.579038
lowerneck -12.999927 3.219686 0.273787
upperneck 6.740677 4.547702 -4.263034
head 4.770779 2.058825 -1.138859
rclavicle -0.000000 0.000000
rhumerus -14.501996 9.983624 -81.667640
rradius 42.032173
rwrist -14.419844
rhand -22.182056 16.893017
rfingers 7.125020
rthumb 4.230040 -12.940278
lclavicle -0.000000 0.000000
lhumerus -50.237564 29.867141 65.912703
lradius 21.904125
lwrist 8.118450
lhand -18.396999 24.028425
lfingers 7.125020
lthumb 7.854651 53.674123
rfemur 13.565804 4.035815 29.278875
rtibia 14.519042
rfoot -15.401644 -2.927666
rtoes -1.523597
lfemur -28.651080 -1.715317 -19.943386
ltibia 26.723231
lfoot -11.922688 13.849270
ltoes -9.612917
3
root 9.273270 17.016600 -33.905900 1.910143 1.634016 0.176797
lowerback 6.015323 1.651314 5.214239
upperback 2.341003 2.555156 1.411963
thorax -0.795364 1.281506 -1.462347
lowerneck -13.013593 3.220148 0.132504
upperneck 5.910503 4.484955 -3.465281
head 4.453972 2.070708 -0.877953
rclavicle -0.000000 0.000000
rhumerus -14.931633 9.428949 -82.320553
rradius 40.566965
rwrist -13.861419
rhand -22.265066 17.029472
rfingers 7.125020
rthumb 4.149155 -12.811463
lclavicle -0.000000 0.000000
lhumerus -49.609206 30.275246 65.920453
lradius 21.510744
lwrist 7.162098
lhand -18.346543 24.011057
lfingers 7.125020
lthumb 7.900298 53.672723
rfemur 15.088664 4.044236 28.945968
rtibia 16.375410
rfoot -13.810592 -2.383582
rtoes -7.420048
lfemur -28.615144 -2.210971 -20.119303
ltibia 28.643386
lfoot -10.863928 13.969748
ltoes -6.741279
4
root 9.268420 17.025800 -33.555600 1.924689 1.634016 0.404199
lowerback 5.389716 1.707959 4.860102
upperback 2.265768 2.557864 1.311274
thorax -0.581183 1.283942 -1.343494
lowerneck -13.026766 3.219030 -0.022027
upperneck 5.074191 4.420508 -2.647473
head 4.134164 2.082206 -0.604899
rclavicle -0.000000 0.000000
rhumerus -15.378543 8.863269 -82.984476
rradius 39.043207
rwrist -13.279082
rhand -22.342450 17.160803
rfingers 7.125020
rthumb 4.073627 -12.688015
lclavicle -0.000000 0.000000
lhumerus -48.940960 30.673869 65.936851
lradius 21.115549
lwrist 6.188342
lhand -18.299792 23.987767
lfingers 7.125020
lthumb 7.941991 53.665166
rfemur 16.487711 4.050790 28.556903
rtibia 18.463600
rfoot -12.306526 -1.863145
rtoes -13.269275
lfemur -28.560157 -2.580082 -20.424034
ltibia 30.890440
lfoot -9.844105 13.964813
ltoes -3.203180
5
root 9.249270 17.016300 -33.220600 1.720352 1.634016 0.012412
lowerback 5.300767 1.713484 3.444715
upperback 2.096182 2.487214 0.859689
thorax -0.727761 1.246111 -1.156158
lowerneck -12.718299 3.108701 -0.429456
upperneck 4.446788 4.273478 -2.009563
head 3.835318 2.044878 -0.364003
rclavicle -0.000000 0.000000
rhumerus -17.225658 7.593738 -84.013630
rradius 35.936255
rwrist -12.496726
rhand -22.139350 17.251004
rfingers 7.125020
rthumb 4.267343 -12.591265
lclavicle -0.000000 0.000000
lhumerus -46.344651 29.651442 67.700660
lradius 21.399027
lwrist 6.684366
lhand -18.336294 23.846578
lfingers 7.125020
lthumb 7.913401 53.552332
rfemur 12.229919 4.279158 26.496882
rtibia 29.447397
rfoot -3.851610 -1.051275
rtoes -18.793038
lfemur -26.621430 -2.318634 -22.401240
ltibia 32.663444
lfoot -10.382476 13.036793
ltoes 0.113330
6
root 9.246830 17.017700 -32.897400 1.557452 1.634016 0.069961
lowerback 5.218324 1.723458 2.160443
upperback 1.943063 2.435589 0.422873
thorax -0.865914 1.218520 -0.982507
lowerneck -12.414812 3.004078 -0.802765
upperneck 3.800835 4.136499 -1.456890
head 3.529283 2.010721 -0.165337
rclavicle -0.000000 0.000000
rhumerus -19.013407 6.382229 -85.035806
rradius 32.879812
rwrist -11.730172
rhand -21.939697 17.339133
rfingers 7.125020
rthumb 4.457619 -12.499266
lclavicle -0.000000 0.000000
lhumerus -43.800132 28.661963 69.465206
lradius 21.651151
lwrist 7.449155
lhand -18.403581 23.679723
lfingers 7.125020
lthumb 7.854531 53.413992
rfemur 8.197346 4.506017 24.525576
rtibia 39.952240
rfoot 3.457598 -0.301752
rtoes -23.823458
lfemur -24.718609 -2.042534 -24.335749
ltibia 34.210036
lfoot -10.987232 12.198647
ltoes 3.056395
7
root 9.219480 17.016100 -32.563300 1.401803 1.634016 0.437133
lowerback 5.334182 1.382949 1.166626
upperback 2.035357 1.936415 0.319173
thorax -0.872311 0.968212 -0.579423
lowerneck -12.315227 3.111011 -0.860162
upperneck 3.657630 4.280018 -1.707427
head 3.474558 2.079627 -0.227165
rclavicle -0.000000 0.000000
rhumerus -20.870481 4.604277 -85.080028
rradius 30.220437
rwrist -9.904888
rhand -20.982668 17.111665
rfingers 7.125020
rthumb 5.382251 -12.710825
lclavicle -0.000000 0.000000
lhumerus -40.320853 24.726322 73.201977
lradius 24.510126
lwrist 10.855270
lhand -18.695900 23.966048
lfingers 7.125020
lthumb 7.580726 53.713290
rfemur 2.452497 4.426623 23.030571
rtibia 48.239817
rfoot 4.823474 -5.176633
rtoes -20.657971
lfemur -21.362077 -2.049424 -25.807010
ltibia 33.126904
lfoot -12.105490 11.659363
ltoes 3.005202
8
root 9.210440 16.998300 -32.235300 1.295781 1.634016 0.613876
lowerback 5.443002 1.084621 0.435988
upperback 2.119394 1.492823 0.233962
thorax -0.877648 0.747922 -0.204805
lowerneck -12.226831 3.211064 -0.915110
upperneck 3.536558 4.412179 -1.927739
head 3.429329 2.143779 -0.275240
rclavicle -0.000000 0.000000
rhumerus -22.686001 2.893620 -85.089689
rradius 27.985447
rwrist -8.328162
rhand -20.093630 16.895433
rfingers 7.125020
rthumb 6.241162 -12.911209
lclavicle -0.000000 0.000000
lhumerus -37.379598 21.125812 76.607806
lradius 27.096317
lwrist 13.295173
lhand -18.939514 24.264765
lfingers 7.125020
lthumb 7.353247 54.023723
rfemur -3.036727 4.346403 21.886421
rtibia 55.228849
rfoot 4.936849 -8.150117
rtoes -17.696997
lfemur -18.190568 -2.103026 -27.009711
ltibia 32.310467
lfoot -13.149779 11.178485
ltoes 2.800671
9
root 9.216220 16.950400 -31.922700 1.207126 1.634016 0.713304
lowerback 5.546300 0.792304 -0.184486
upperback 2.197748 1.059840 0.162420
thorax -0.882060 0.533558 0.161042
lowerneck -12.145106 3.305809 -0.971380
upperneck 3.436219 4.535854 -2.135526
head 3.392980 2.204279 -0.316355
rclavicle -0.000000 0.000000
rhumerus -24.510677 1.189863 -85.065115
rradius 25.947885
rwrist -6.881017
rhand -19.237185 16.657941
rfingers 7.125020
rthumb 7.068515 -13.131813
lclavicle -0.000000 0.000000
lhumerus -34.639849 17.596187 79.880898
lradius 29.666518
lwrist 15.379083
lhand -19.144582 24.583870
lfingers 7.125020
lthumb 7.162630 54.353796
rfemur -8.449273 4.257928 20.897485
rtibia 61.556926
rfoot 3.851472 -10.704222
rtoes -14.544889
lfemur -15.083729 -2.211975 -28.091007
ltibia 31.546431
lfoot -14.171520 10.730470
ltoes 2.321631
10
root 9.215440 16.883800 -31.609400 1.108868 1.634016 0.799051
lowerback 5.645514 0.470553 -0.824744
upperback 2.272820 0.593565 0.100497
thorax -0.885658 0.301676 0.537350
lowerneck -12.065874 3.396735 -1.032837
upperneck 3.355450 4.653732 -2.347481
head 3.365017 2.262164 -0.356319
rclavicle -0.000000 0.000000
rhumerus -26.395479 -0.567149 -85.005477
rradius 23.900843
rwrist -5.454257
rhand -18.379237 16.363497
rfingers 7.125020
rthumb 7.897218 -13.407200
lclavicle -0.000000 0.000000
lhumerus -31.788145 13.878401 83.211732
lradius 32.475935
lwrist 17.628185
lhand -19.319654 24.931905
lfingers 7.125020
lthumb 7.000944 54.712559
rfemur -13.961585 4.153002 19.894665
rtibia 67.801339
rfoot 1.052806 -14.111940
rtoes -10.780460
lfemur -11.923660 -2.393814 -29.183198
ltibia 30.634254
lfoot -15.221023 10.291522
ltoes 1.284282
